<?xml version="1.0" encoding="utf-8"?>
<!-- Generator: Adobe Illustrator 12.0.0, SVG Export Plug-In . SVG Version: 6.00 Build 51448)  -->
<!DOCTYPE svg PUBLIC "-//W3C//DTD SVG 1.1//EN" "http://www.w3.org/Graphics/SVG/1.1/DTD/svg11.dtd" [
	<!ENTITY ns_svg "http://www.w3.org/2000/svg">
	<!ENTITY ns_xlink "http://www.w3.org/1999/xlink">
]>
<svg  version="1.1" id="Layer_1" xmlns="&ns_svg;" xmlns:xlink="&ns_xlink;" width="385" height="401.0009766"
	 viewBox="0 0 385 401.0009766" overflow="visible" enable-background="new 0 0 385 401.0009766" xml:space="preserve">
<g>
	<g>
		<path fill-rule="evenodd" clip-rule="evenodd" fill="#FFFFFF" d="M0.5,262.0195313
			C0.5,139.2568359,81.230957,35.3525391,192.5,0.5c111.2695313,34.8525391,192,138.7568359,192,261.5195313v63.6425781
			c0,29.9931641-21.3037109,55.0136719-49.6015625,60.7597656l-0.1894531,0.0380859l-0.1865234,0.0371094l-0.1875,0.0371094
			C288.4111328,395.7021484,241.0175781,400.5009766,192.5,400.5009766c-48.5185547,0-95.9111328-4.7988281-141.8349609-13.9667969
			l-0.1875-0.0371094l-0.1865234-0.0371094l-0.1899414-0.0380859C21.8037109,380.6757813,0.5,355.6552734,0.5,325.6621094
			C0.5,291.4199219,0.5,384.7822266,0.5,262.0195313z"/>
		
			<path fill-rule="evenodd" clip-rule="evenodd" fill="none" stroke="#000000" stroke-linecap="round" stroke-linejoin="round" stroke-miterlimit="3.863693" d="
			M0.5,262.0195313C0.5,139.2568359,81.230957,35.3525391,192.5,0.5c111.2695313,34.8525391,192,138.7568359,192,261.5195313
			v63.6425781c0,29.9931641-21.3037109,55.0136719-49.6015625,60.7597656l-0.1894531,0.0380859l-0.1865234,0.0371094
			l-0.1875,0.0371094C288.4111328,395.7021484,241.0175781,400.5009766,192.5,400.5009766
			c-48.5185547,0-95.9111328-4.7988281-141.8349609-13.9667969l-0.1875-0.0371094l-0.1865234-0.0371094l-0.1899414-0.0380859
			C21.8037109,380.6757813,0.5,355.6552734,0.5,325.6621094C0.5,291.4199219,0.5,384.7822266,0.5,262.0195313z"/>
	</g>
	<g>
		<path fill-rule="evenodd" clip-rule="evenodd" fill="#006B54" d="M192.5,13.1035156
			c104.5498047,34.4199219,180,132.8706055,180,248.9160156v63.6425781c0,24.1728516-17.1660156,44.3652344-39.9824219,48.9980469
			c-45.1630859,9.015625-92.3027344,13.8408203-140.0175781,13.8408203S98.1708984,383.78125,53.0083008,374.765625
			C30.1914063,370.1318359,12.5,349.8349609,12.5,325.6621094v-63.6425781C12.5,145.9741211,87.9501953,47.5234375,192.5,13.1035156
			z"/>
	</g>
	<g>
		<g>
			<g>
				<path fill-rule="evenodd" clip-rule="evenodd" fill="#FFFFFF" d="M80.8442383,145.7192383
					c-0.1098633,1.2050781-0.4057617,2.3603516-0.887207,3.4667969c-0.4814453,1.105957-1.0898438,2.1230469-1.8261719,3.050293
					c-0.7358398,0.9272461-1.6020508,1.7578125-2.5986328,2.4921875c-0.9960938,0.7338867-2.0644531,1.3310547-3.2045898,1.7919922
					c-1.8808594,0.7597656-3.7133789,1.0859375-5.4975586,0.9780273s-3.4658203-0.5976563-5.0439453-1.4682617
					c-1.5786133-0.8706055-3.0170898-2.112793-4.315918-3.7265625c-1.2983398-1.6137695-2.3969727-3.5327148-3.2949219-5.7558594
					c-0.909668-2.2514648-1.4550781-4.4013672-1.6362305-6.4501953s-0.0039063-3.9272461,0.5327148-5.6357422
					c0.5361328-1.7084961,1.4116211-3.2143555,2.6259766-4.5170898c1.2138672-1.3027344,2.7617188-2.3344727,4.6425781-3.0942383
					c2.3085938-0.9331055,4.675293-1.2509766,7.0991211-0.9536133c2.4243164,0.296875,4.6010742,1.2324219,6.5302734,2.8066406
					l-3.5473633,4.2680664c-0.640625-0.4370117-1.1538086-0.7441406-1.5400391-0.9189453
					c-0.3857422-0.1757813-0.8300781-0.3115234-1.3330078-0.4067383c-0.7539063-0.2255859-1.6064453-0.3041992-2.5566406-0.2348633
					c-0.949707,0.0688477-1.8100586,0.2587891-2.5795898,0.5698242c-1.3110352,0.5292969-2.2900391,1.2651367-2.9375,2.2060547
					c-0.6474609,0.9414063-1.0576172,1.9775391-1.230957,3.1083984c-0.1733398,1.1303711-0.1459961,2.3051758,0.0805664,3.5229492
					c0.2270508,1.2177734,0.5649414,2.3828125,1.0141602,3.4941406c1.2666016,3.1352539,2.8608398,5.3173828,4.7832031,6.5463867
					c1.9223633,1.2294922,3.9663086,1.40625,6.1323242,0.53125c0.6557617-0.2646484,1.2211914-0.5678711,1.6967773-0.9091797
					c0.4750977-0.3413086,0.9077148-0.7480469,1.2973633-1.2202148c0.3891602-0.4726563,0.7451172-1.0473633,1.0683594-1.7250977
					c0.3232422-0.6772461,0.6601563-1.4848633,1.0107422-2.4223633L80.8442383,145.7192383z"/>
			</g>
			<g>
				<path fill-rule="evenodd" clip-rule="evenodd" fill="#FFFFFF" d="M111.6547852,142.4169922l-5.0405273-6.0771484
					l-12.8754883,3.9365234l-0.7358398,7.8432617l-5.8208008,1.7792969l3.4023438-33.3447266l5.3793945-1.6450195
					l21.3789063,25.7685547L111.6547852,142.4169922z M95.5253906,123.0952148l-1.0976563,11.2329102l8.2895508-2.534668
					L95.5253906,123.0952148z"/>
			</g>
			<g>
				<polygon fill-rule="evenodd" clip-rule="evenodd" fill="#FFFFFF" points="122.6401367,140.019043 116.7456055,109.6928711 
					122.1767578,108.637207 127.1655273,134.3007813 144.4106445,130.9492188 145.3164063,135.6108398 				"/>
			</g>
			<g>
				
					<rect x="135.9861755" y="116.7359695" transform="matrix(0.1218752 0.9925454 -0.9925454 0.1218752 251.5887909 -45.3657227)" fill-rule="evenodd" clip-rule="evenodd" fill="#FFFFFF" width="30.893383" height="5.5334282"/>
			</g>
			<g>
				<polygon fill-rule="evenodd" clip-rule="evenodd" fill="#FFFFFF" points="167.8574219,107.9614258 168.2949219,114.2167969 
					177.9082031,113.5444336 178.300293,119.1557617 168.6870117,119.8286133 169.6264648,133.2597656 164.0146484,133.6518555 
					161.859375,102.8339844 184.9042969,101.2226563 185.2900391,106.7421875 				"/>
			</g>
			<g>
				<path fill-rule="evenodd" clip-rule="evenodd" fill="#FFFFFF" d="M217.8164063,117.5214844
					c-0.0849609,2.4272461-0.4619141,4.6206055-1.1298828,6.581543c-0.6679688,1.9604492-1.5800781,3.6279297-2.7353516,5.0024414
					s-2.5371094,2.4257813-4.1464844,3.1542969c-1.6103516,0.7280273-3.3984375,1.0576172-5.3642578,0.9892578
					c-2.2734375-0.0795898-4.2158203-0.6166992-5.8261719-1.6108398s-2.9267578-2.2705078-3.9492188-3.8291016
					c-1.0224609-1.5581055-1.7529297-3.3061523-2.1933594-5.2436523c-0.4394531-1.9379883-0.6259766-3.8745117-0.5581055-5.8100586
					c0.0854492-2.4575195,0.4624023-4.6591797,1.1303711-6.6040039c0.6669922-1.9453125,1.59375-3.5893555,2.7783203-4.9321289
					c1.1855469-1.3427734,2.5976563-2.3544922,4.2363281-3.0356445s3.4707031-0.9858398,5.4990234-0.9150391
					c1.9042969,0.0664063,3.6269531,0.5107422,5.1669922,1.3334961c1.5390625,0.8227539,2.8535156,1.9453125,3.9423828,3.3676758
					c1.0878906,1.421875,1.9052734,3.1191406,2.4521484,5.0913086
					C217.6650391,113.0332031,217.8974609,115.1870117,217.8164063,117.5214844z M212.28125,117.4667969
					c0.1132813-3.2563477-0.4267578-5.828125-1.6220703-7.715332s-2.9599609-2.8720703-5.2949219-2.9536133
					s-4.1943359,0.7763672-5.5800781,2.5737305c-1.3857422,1.796875-2.1357422,4.3237305-2.2490234,7.5800781
					c-0.1152344,3.3178711,0.4550781,5.921875,1.7109375,7.8110352c1.2578125,1.8891602,3.0527344,2.875,5.3876953,2.956543
					c1.4746094,0.0512695,2.6914063-0.2290039,3.6513672-0.8417969c0.9589844-0.6123047,1.7255859-1.4160156,2.2988281-2.4111328
					c0.5722656-0.9946289,0.9882813-2.1108398,1.2470703-3.347168
					C212.0898438,119.8823242,212.2402344,118.6650391,212.28125,117.4667969z"/>
			</g>
			<g>
				<path fill-rule="evenodd" clip-rule="evenodd" fill="#FFFFFF" d="M243.0107422,136.4501953l-3.2431641-12.7021484
					l-8.1738281-1.1484375l-1.6875,12.0087891l-5.4794922-0.7700195l4.2998047-30.5927734l14.0634766,1.9760742
					c1.1259766,0.1586914,2.0722656,0.3847656,2.8378906,0.6787109s1.5107422,0.7397461,2.2333984,1.3383789
					c1.3496094,0.996582,2.3505859,2.2700195,3.0019531,3.8208008c0.6503906,1.550293,0.8544922,3.1933594,0.6113281,4.9282227
					c-0.2441406,1.7353516-0.8994141,3.2495117-1.9667969,4.5429688c-1.0664063,1.293457-2.4501953,2.2548828-4.1533203,2.8852539
					l3.7744141,13.894043L243.0107422,136.4501953z M245.9941406,115.2177734
					c0.1679688-1.1870117-0.0957031-2.1865234-0.7890625-2.9975586c-0.6933594-0.8115234-1.7246094-1.3134766-3.09375-1.5058594
					l-8.6757813-1.2192383l-1.0722656,7.625l8.6757813,1.2192383c1.3701172,0.1928711,2.4990234,0.0019531,3.3867188-0.5712891
					C245.3134766,117.1938477,245.8359375,116.34375,245.9941406,115.2177734z"/>
			</g>
			<g>
				<polygon fill-rule="evenodd" clip-rule="evenodd" fill="#FFFFFF" points="274.8271484,143.2734375 265.6972656,119.090332 
					260.5546875,139.7148438 255.2753906,138.3989258 262.75,108.4228516 268.0292969,109.7397461 276.8339844,132.9389648 
					281.7636719,113.1635742 286.9541016,114.4580078 279.4804688,144.4335938 				"/>
			</g>
			<g>
				
					<rect x="279.0962219" y="130.1167603" transform="matrix(-0.3090257 0.9510537 -0.9510537 -0.3090257 511.9432373 -106.1788483)" fill-rule="evenodd" clip-rule="evenodd" fill="#FFFFFF" width="30.8934689" height="5.532599"/>
			</g>
			<g>
				<path fill-rule="evenodd" clip-rule="evenodd" fill="#FFFFFF" d="M321.2080078,159.2294922l-0.0927734-7.8950195
					l-12.4833984-5.043457l-5.5078125,5.6318359l-5.6435547-2.2797852l23.6289063-23.7729492l5.2158203,2.1074219
					l0.3974609,33.4799805L321.2080078,159.2294922z M320.8330078,134.0634766l-7.9228516,8.0380859l8.0371094,3.2475586
					L320.8330078,134.0634766z"/>
			</g>
		</g>
	</g>
</g>
<path fill-rule="evenodd" clip-rule="evenodd" fill="#FFFFFF" d="M139.9350586,333.734375
	c0.3076172-9.0683594,1.4604492-17.3691406,3.4584961-24.8994141c1.9980469-7.53125,5.1484375-14.9853516,9.4521484-22.3632813
	c3.2275391-5.8408203,7.2241211-11.2587891,11.9882813-16.2539063c4.7651367-4.9951172,9.8369141-9.4902344,15.2163086-13.4873047
	c1.3833008-0.7675781,2.612793-1.5742188,3.6889648-2.4199219c1.0756836-0.8457031,2.1518555-1.6523438,3.2275391-2.4208984
	l8.2998047-4.3798828l7.6083984-4.3808594l7.3769531-4.1503906c3.0742188-1.9980469,5.5722656-4.4951172,7.4931641-7.4921875
	s2.8818359-6.109375,2.8818359-9.3378906c0-2.9199219-0.7685547-5.6484375-2.3056641-8.1835938
	c-1.5371094-2.5361328-3.5732422-4.7265625-6.109375-6.5703125c-2.5361328-1.8457031-5.4951172-3.3046875-8.8759766-4.3808594
	c-3.3818359-1.0761719-6.9931641-1.6137695-10.8359375-1.6137695c-7.8388672,0-14.1787109,1.8442383-19.0205078,5.5327148
	c-4.8413086,3.6884766-7.8769531,9.0683594-9.1064453,16.1386719l-24.4379883-5.3027344
	c2.612793-12.9111328,8.6069336-23.0161133,17.9829102-30.3168945c9.3754883-7.3007813,20.902832-10.9511719,34.5820313-10.9511719
	c7.3769531,0,14.2558594,1.2294922,20.6337891,3.6889648c6.3789063,2.4589844,11.9111328,5.7636719,16.5996094,9.9135742
	c4.6875,4.1499023,8.4150391,9.0297852,11.1816406,14.6391602c2.7666016,5.6103516,4.1494141,11.5664063,4.1494141,17.8671875
	c0,5.9951172-1.3447266,11.8740234-4.0341797,17.6376953c-2.6904297,5.7636719-6.5703125,10.8740234-11.6425781,15.3310547
	c-1.2294922,0.921875-2.34375,1.7675781-3.3427734,2.5361328c-1,0.7685547-2.0371094,1.3837891-3.1132813,1.8447266
	l-7.6074219,4.8417969l-8.2998047,4.3798828l-7.6083984,4.3798828c-3.6884766,2.1523438-6.9545898,4.4199219-9.7978516,6.8017578
	c-2.84375,2.3818359-5.4560547,4.9560547-7.8388672,7.7236328c-2.3818359,2.765625-4.6108398,5.8398438-6.6855469,9.2216797
	c-2.0751953,3.3818359-4.034668,7.2236328-5.8789063,11.5273438h75.8496094v24.8994141H139.9350586z"/>
</svg>
